<svg width="311" height="112" viewBox="0 0 311 112" fill="none" xmlns="http://www.w3.org/2000/svg">
<g filter="url(#filter0_dd_16_14)">
<path d="M45.5961 31.2481C45.7485 30.8329 54.574 41.4842 54.7748 41.5059C54.9756 41.5276 67.376 25.9261 67.4178 26.305C67.4597 26.6838 66.3195 50.4728 66.3195 50.4728L22.1874 62.7492C22.1874 62.7492 23.9562 37.0494 24.2136 37.2979C24.2136 37.2979 34.5651 46.9081 34.9595 46.6014C35.3538 46.2947 45.4436 31.6633 45.5961 31.2481Z" fill="#9146FF" fill-opacity="0.89"/>
<path d="M24.2136 37.2979C24.2136 37.2979 34.5651 46.9081 34.9595 46.6014C35.3538 46.2947 45.4436 31.6633 45.5961 31.2481C45.7485 30.8329 54.574 41.4842 54.7748 41.5059C54.9756 41.5276 67.376 25.9261 67.4178 26.305C67.4597 26.6838 66.3195 50.4728 66.3195 50.4728M24.2136 37.2979L20.1093 88.3893M24.2136 37.2979C23.9562 37.0494 22.1874 62.7492 22.1874 62.7492L66.3195 50.4728M64.8033 78.4031L66.3195 50.4728" stroke="#1D4E89" stroke-width="8" stroke-linecap="round"/>
</g>
<path d="M22.8925 89.0655C22.8925 94.2181 16.9478 98.3951 10.9179 98.3951C4.88813 98.3951 0 94.2181 0 89.0655C0 83.9129 4.88813 79.7359 10.9179 79.7359C16.9478 79.7359 22.8925 83.9129 22.8925 89.0655Z" fill="#1D4E89"/>
<path d="M67.6208 78.8474C67.6208 84 61.0461 88.6212 55.1151 88.6212C49.1842 88.6212 44.3762 84.4442 44.3762 79.2916C44.3762 74.1391 49.1842 69.9621 55.1151 69.9621C61.0461 69.9621 67.6208 73.6948 67.6208 78.8474Z" fill="#1D4E89"/>
<path d="M85.92 26.48H100.704V74.48H116.544V86H85.92V26.48ZM135.901 86.768C129.885 86.768 125.597 85.68 123.037 83.504C120.477 81.328 119.197 78.448 119.197 74.864V37.616C119.197 34.032 120.477 31.152 123.037 28.976C125.597 26.8 129.885 25.712 135.901 25.712C141.917 25.712 146.205 26.8 148.765 28.976C151.325 31.152 152.605 34.032 152.605 37.616V74.864C152.605 78.448 151.325 81.328 148.765 83.504C146.205 85.68 141.917 86.768 135.901 86.768ZM135.901 74.672C136.861 74.672 137.469 74.384 137.725 73.808C138.045 73.232 138.205 72.24 138.205 70.832V41.456C138.205 39.984 138.045 38.992 137.725 38.48C137.469 37.904 136.861 37.616 135.901 37.616C134.941 37.616 134.301 37.904 133.981 38.48C133.725 38.992 133.597 39.952 133.597 41.36V70.832C133.597 72.24 133.725 73.232 133.981 73.808C134.301 74.384 134.941 74.672 135.901 74.672ZM172.457 86.48C169.257 86.48 166.377 86.192 163.817 85.616C161.321 85.04 159.369 84.112 157.961 82.832C156.553 81.488 155.849 79.696 155.849 77.456V26.48H170.633V72.848C170.633 73.232 170.697 73.584 170.825 73.904C170.953 74.224 171.145 74.48 171.401 74.672C171.721 74.864 172.073 74.96 172.457 74.96C172.905 74.96 173.257 74.864 173.513 74.672C173.833 74.48 174.057 74.224 174.185 73.904C174.377 73.52 174.473 73.168 174.473 72.848V26.48H189.257V77.456C189.257 79.696 188.521 81.488 187.049 82.832C185.577 84.112 183.561 85.04 181.001 85.616C178.505 86.192 175.657 86.48 172.457 86.48ZM209.597 86.96C206.653 86.96 203.837 86.768 201.149 86.384C198.461 86 196.285 85.264 194.621 84.176C192.957 83.024 192.125 81.392 192.125 79.28V64.976L206.909 63.536V72.944C206.909 73.584 207.005 74.128 207.197 74.576C207.389 75.024 207.901 75.248 208.733 75.248C209.245 75.248 209.629 75.152 209.885 74.96C210.205 74.704 210.429 74.416 210.557 74.096C210.685 73.712 210.749 73.328 210.749 72.944V68.336C210.749 67.056 210.461 65.776 209.885 64.496C209.373 63.216 208.125 62.256 206.141 61.616L200.093 59.6C197.341 58.704 195.325 57.552 194.045 56.144C192.765 54.672 192.125 52.336 192.125 49.136V35.216C192.125 32.4 192.925 30.32 194.525 28.976C196.189 27.632 198.333 26.768 200.957 26.384C203.645 25.936 206.461 25.712 209.405 25.712C212.157 25.712 214.749 25.936 217.181 26.384C219.613 26.832 221.597 27.632 223.133 28.784C224.733 29.872 225.533 31.408 225.533 33.392V47.696L210.749 49.616V40.976C210.749 39.12 210.557 38.032 210.173 37.712C209.853 37.328 209.405 37.136 208.829 37.136C208.253 37.136 207.773 37.36 207.389 37.808C207.069 38.256 206.909 39.376 206.909 41.168V44.72C206.909 45.744 207.037 46.896 207.293 48.176C207.549 49.456 208.381 50.352 209.789 50.864L216.893 53.36C219.901 54.384 222.077 55.6 223.421 57.008C224.829 58.352 225.533 60.528 225.533 63.536V77.168C225.533 79.856 224.765 81.904 223.229 83.312C221.693 84.72 219.709 85.68 217.277 86.192C214.909 86.704 212.349 86.96 209.597 86.96ZM226.875 86L239.163 26.48H253.851L266.043 86H250.683L248.571 74.48L250.875 76.592H241.563L243.483 74.48L241.755 86H226.875ZM244.059 66.416L242.811 64.88H250.107L248.283 66.416L246.459 46.544L246.363 43.856H246.267L246.171 46.544L244.059 66.416Z" fill="#1D4E89"/>
<defs>
<filter id="filter0_dd_16_14" x="5.57224" y="14.8833" width="76.3836" height="92.9214" filterUnits="userSpaceOnUse" color-interpolation-filters="sRGB">
<feFlood flood-opacity="0" result="BackgroundImageFix"/>
<feColorMatrix in="SourceAlpha" type="matrix" values="0 0 0 0 0 0 0 0 0 0 0 0 0 0 0 0 0 0 127 0" result="hardAlpha"/>
<feOffset dy="1"/>
<feGaussianBlur stdDeviation="1.5"/>
<feColorMatrix type="matrix" values="0 0 0 0 0 0 0 0 0 0 0 0 0 0 0 0 0 0 0.3 0"/>
<feBlend mode="normal" in2="BackgroundImageFix" result="effect1_dropShadow_16_14"/>
<feColorMatrix in="SourceAlpha" type="matrix" values="0 0 0 0 0 0 0 0 0 0 0 0 0 0 0 0 0 0 127 0" result="hardAlpha"/>
<feMorphology radius="3" operator="dilate" in="SourceAlpha" result="effect2_dropShadow_16_14"/>
<feOffset dy="4"/>
<feGaussianBlur stdDeviation="4"/>
<feColorMatrix type="matrix" values="0 0 0 0 0 0 0 0 0 0 0 0 0 0 0 0 0 0 0.15 0"/>
<feBlend mode="normal" in2="effect1_dropShadow_16_14" result="effect2_dropShadow_16_14"/>
<feBlend mode="normal" in="SourceGraphic" in2="effect2_dropShadow_16_14" result="shape"/>
</filter>
</defs>
</svg>
