<svg width="307" height="108" viewBox="0 0 307 108" fill="none" xmlns="http://www.w3.org/2000/svg">
<g filter="url(#filter0_dd_16_10)">
<path d="M45.5961 27.2481C45.7485 26.8329 54.574 37.4842 54.7748 37.5059C54.9756 37.5276 67.376 21.9261 67.4178 22.305C67.4597 22.6838 66.3195 46.4728 66.3195 46.4728L22.1874 58.7492C22.1874 58.7492 23.9562 33.0494 24.2136 33.2979C24.2136 33.2979 34.5651 42.9081 34.9595 42.6014C35.3538 42.2947 45.4436 27.6633 45.5961 27.2481Z" fill="white" fill-opacity="0.89"/>
<path d="M24.2136 33.2979C24.2136 33.2979 34.5651 42.9081 34.9595 42.6014C35.3538 42.2947 45.4436 27.6633 45.5961 27.2481C45.7485 26.8329 54.574 37.4842 54.7748 37.5059C54.9756 37.5276 67.376 21.9261 67.4178 22.305C67.4597 22.6838 66.3195 46.4728 66.3195 46.4728M24.2136 33.2979L20.1093 84.3893M24.2136 33.2979C23.9562 33.0494 22.1874 58.7492 22.1874 58.7492L66.3195 46.4728M64.8033 74.4031L66.3195 46.4728" stroke="#DC3134" stroke-width="8" stroke-linecap="round"/>
</g>
<path d="M22.8925 85.0655C22.8925 90.2181 16.9478 94.3951 10.9179 94.3951C4.88813 94.3951 0 90.2181 0 85.0655C0 79.9129 4.88813 75.7359 10.9179 75.7359C16.9478 75.7359 22.8925 79.9129 22.8925 85.0655Z" fill="#DC3134"/>
<path d="M67.6208 74.8474C67.6208 80 61.0461 84.6212 55.1151 84.6212C49.1842 84.6212 44.3762 80.4442 44.3762 75.2916C44.3762 70.1391 49.1842 65.9621 55.1151 65.9621C61.0461 65.9621 67.6208 69.6948 67.6208 74.8474Z" fill="#DC3134"/>
<path d="M94.96 61.76H106.73V71H82.75V32.06H94.96V61.76ZM129.547 71.385C125.881 71.385 122.507 70.5233 119.427 68.8C116.384 67.0767 113.964 64.6933 112.167 61.65C110.371 58.6067 109.472 55.1783 109.472 51.365C109.472 47.5517 110.371 44.1233 112.167 41.08C113.964 38.0367 116.384 35.6717 119.427 33.985C122.507 32.2617 125.881 31.4 129.547 31.4C133.214 31.4 136.569 32.2617 139.612 33.985C142.656 35.6717 145.057 38.0367 146.817 41.08C148.614 44.1233 149.512 47.5517 149.512 51.365C149.512 55.1783 148.614 58.6067 146.817 61.65C145.057 64.6933 142.637 67.0767 139.557 68.8C136.514 70.5233 133.177 71.385 129.547 71.385ZM129.547 60C131.967 60 133.837 59.23 135.157 57.69C136.477 56.1133 137.137 54.005 137.137 51.365C137.137 48.6883 136.477 46.58 135.157 45.04C133.837 43.4633 131.967 42.675 129.547 42.675C127.091 42.675 125.202 43.4633 123.882 45.04C122.562 46.58 121.902 48.6883 121.902 51.365C121.902 54.005 122.562 56.1133 123.882 57.69C125.202 59.23 127.091 60 129.547 60ZM165.852 32.06V54.005C165.852 55.8017 166.237 57.2317 167.007 58.295C167.814 59.3217 169.097 59.835 170.857 59.835C172.617 59.835 173.919 59.3217 174.762 58.295C175.605 57.2317 176.027 55.8017 176.027 54.005V32.06H188.182V54.005C188.182 57.7083 187.412 60.88 185.872 63.52C184.332 66.1233 182.224 68.085 179.547 69.405C176.87 70.725 173.882 71.385 170.582 71.385C167.282 71.385 164.349 70.725 161.782 69.405C159.252 68.085 157.272 66.1233 155.842 63.52C154.412 60.9167 153.697 57.745 153.697 54.005V32.06H165.852ZM208.683 71.385C204.027 71.385 200.177 70.3033 197.133 68.14C194.127 65.94 192.495 62.7317 192.238 58.515H205.218C205.402 60.7517 206.392 61.87 208.188 61.87C208.848 61.87 209.398 61.7233 209.838 61.43C210.315 61.1 210.553 60.605 210.553 59.945C210.553 59.0283 210.058 58.295 209.068 57.745C208.078 57.1583 206.538 56.4983 204.448 55.765C201.955 54.885 199.883 54.0233 198.233 53.18C196.62 52.3367 195.227 51.1083 194.053 49.495C192.88 47.8817 192.312 45.81 192.348 43.28C192.348 40.75 192.99 38.605 194.273 36.845C195.593 35.0483 197.372 33.6917 199.608 32.775C201.882 31.8583 204.43 31.4 207.253 31.4C212.02 31.4 215.797 32.5 218.583 34.7C221.407 36.9 222.892 39.9983 223.038 43.995H209.893C209.857 42.895 209.582 42.1067 209.068 41.63C208.555 41.1533 207.932 40.915 207.198 40.915C206.685 40.915 206.263 41.0983 205.933 41.465C205.603 41.795 205.438 42.2717 205.438 42.895C205.438 43.775 205.915 44.5083 206.868 45.095C207.858 45.645 209.417 46.3233 211.543 47.13C214 48.0467 216.017 48.9267 217.593 49.77C219.207 50.6133 220.6 51.7867 221.773 53.29C222.947 54.7933 223.533 56.6817 223.533 58.955C223.533 61.3383 222.947 63.4833 221.773 65.39C220.6 67.26 218.895 68.7267 216.658 69.79C214.422 70.8533 211.763 71.385 208.683 71.385ZM252.793 65.115H239.813L237.888 71H225.073L239.318 32.06H253.398L267.588 71H254.718L252.793 65.115ZM249.823 55.93L246.303 45.095L242.783 55.93H249.823Z" fill="#DC3134"/>
<defs>
<filter id="filter0_dd_16_10" x="5.57224" y="10.8833" width="76.3836" height="92.9214" filterUnits="userSpaceOnUse" color-interpolation-filters="sRGB">
<feFlood flood-opacity="0" result="BackgroundImageFix"/>
<feColorMatrix in="SourceAlpha" type="matrix" values="0 0 0 0 0 0 0 0 0 0 0 0 0 0 0 0 0 0 127 0" result="hardAlpha"/>
<feOffset dy="1"/>
<feGaussianBlur stdDeviation="1.5"/>
<feColorMatrix type="matrix" values="0 0 0 0 0 0 0 0 0 0 0 0 0 0 0 0 0 0 0.3 0"/>
<feBlend mode="normal" in2="BackgroundImageFix" result="effect1_dropShadow_16_10"/>
<feColorMatrix in="SourceAlpha" type="matrix" values="0 0 0 0 0 0 0 0 0 0 0 0 0 0 0 0 0 0 127 0" result="hardAlpha"/>
<feMorphology radius="3" operator="dilate" in="SourceAlpha" result="effect2_dropShadow_16_10"/>
<feOffset dy="4"/>
<feGaussianBlur stdDeviation="4"/>
<feColorMatrix type="matrix" values="0 0 0 0 0 0 0 0 0 0 0 0 0 0 0 0 0 0 0.15 0"/>
<feBlend mode="normal" in2="effect1_dropShadow_16_10" result="effect2_dropShadow_16_10"/>
<feBlend mode="normal" in="SourceGraphic" in2="effect2_dropShadow_16_10" result="shape"/>
</filter>
</defs>
</svg>
